<?xml version="1.0" encoding="utf-8"?>
<!-- Generator: Adobe Illustrator 27.6.1, SVG Export Plug-In . SVG Version: 6.00 Build 0)  -->
<svg version="1.1" id="Camada_1" xmlns="http://www.w3.org/2000/svg" xmlns:xlink="http://www.w3.org/1999/xlink" x="0px" y="0px"
	 viewBox="0 0 1920 1080" style="enable-background:new 0 0 1920 1080;" xml:space="preserve">
<style type="text/css">
	.st0{clip-path:url(#SVGID_00000134218211324551157330000004965747347630445482_);fill:#FFE8DD;}
	.st1{clip-path:url(#SVGID_00000134218211324551157330000004965747347630445482_);}
	.st2{clip-path:url(#SVGID_00000019675904995646354150000006932704213191066278_);fill:#FF4600;}
	.st3{clip-path:url(#SVGID_00000019675904995646354150000006932704213191066278_);fill:#201516;}
	.st4{clip-path:url(#SVGID_00000147938047852625272450000010321604932295608759_);fill:#201516;}
	.st5{clip-path:url(#SVGID_00000147938047852625272450000010321604932295608759_);}
	.st6{clip-path:url(#SVGID_00000017510186580662453820000014636021312267349931_);fill:#FFE8DD;}
	.st7{clip-path:url(#SVGID_00000017510186580662453820000014636021312267349931_);fill:#16E35E;}
	.st8{clip-path:url(#SVGID_00000178916158307926878590000010056072225510624413_);fill:#FFE8DD;}
	.st9{clip-path:url(#SVGID_00000178916158307926878590000010056072225510624413_);}
	.st10{clip-path:url(#SVGID_00000073001465381257289130000012936291712485411732_);fill:#201516;}
	.st11{clip-path:url(#SVGID_00000073001465381257289130000012936291712485411732_);fill:#FF4600;}
	.st12{clip-path:url(#SVGID_00000011006476755139273420000005689424236546833085_);fill:#201516;}
	.st13{clip-path:url(#SVGID_00000011006476755139273420000005689424236546833085_);}
	.st14{clip-path:url(#SVGID_00000134220828889549678930000008612823279407602357_);fill:#FFE8DD;}
	.st15{clip-path:url(#SVGID_00000134220828889549678930000008612823279407602357_);fill:#201516;}
	.st16{clip-path:url(#SVGID_00000134220828889549678930000008612823279407602357_);fill:#16E35E;}
	.st17{clip-path:url(#SVGID_00000134958116971029998040000016314934761645612683_);fill:#FFE8DD;}
	.st18{clip-path:url(#SVGID_00000134958116971029998040000016314934761645612683_);}
	.st19{clip-path:url(#SVGID_00000155848226791314027080000016068924062654001567_);fill:#201516;}
	.st20{clip-path:url(#SVGID_00000155848226791314027080000016068924062654001567_);fill:#FF4600;}
	.st21{clip-path:url(#SVGID_00000063613679918499909860000003559716885206647724_);fill:#201516;}
	.st22{clip-path:url(#SVGID_00000063613679918499909860000003559716885206647724_);}
	.st23{clip-path:url(#SVGID_00000039812762980787480190000005908264616900787605_);fill:#FFE8DD;}
	.st24{clip-path:url(#SVGID_00000039812762980787480190000005908264616900787605_);fill:#16E35E;}
	.st25{clip-path:url(#SVGID_00000134959182406884081080000005822689631482227593_);fill:#FFE8DD;}
	.st26{clip-path:url(#SVGID_00000134959182406884081080000005822689631482227593_);}
	.st27{clip-path:url(#SVGID_00000050662708537389035100000000283978744318043283_);fill:#201516;}
	.st28{clip-path:url(#SVGID_00000050662708537389035100000000283978744318043283_);fill:#FF4600;}
	.st29{clip-path:url(#SVGID_00000142886929800069564950000017870956678363125641_);fill:#201516;}
	.st30{clip-path:url(#SVGID_00000142886929800069564950000017870956678363125641_);}
	.st31{clip-path:url(#SVGID_00000176745251769142180130000005889827259542742405_);fill:#FFE8DD;}
	.st32{clip-path:url(#SVGID_00000176745251769142180130000005889827259542742405_);fill:#16E35E;}
	.st33{clip-path:url(#SVGID_00000166639462321237103360000014242024668773912197_);fill:#FFE8DD;}
	.st34{clip-path:url(#SVGID_00000166639462321237103360000014242024668773912197_);}
	.st35{clip-path:url(#SVGID_00000150824307630474220440000012345364199640245414_);fill:#201516;}
	.st36{clip-path:url(#SVGID_00000150824307630474220440000012345364199640245414_);fill:#FF4600;}
	.st37{clip-path:url(#SVGID_00000142887523223386686780000016582264191997864091_);fill:#201516;}
	.st38{clip-path:url(#SVGID_00000142887523223386686780000016582264191997864091_);}
	.st39{clip-path:url(#SVGID_00000003788282821744038170000006232941329428262545_);fill:#FFE8DD;}
	.st40{clip-path:url(#SVGID_00000003788282821744038170000006232941329428262545_);fill:#16E35E;}
	.st41{clip-path:url(#SVGID_00000183211276758193012970000016516687356305536437_);fill:#FFE8DD;}
	.st42{clip-path:url(#SVGID_00000183211276758193012970000016516687356305536437_);}
	.st43{clip-path:url(#SVGID_00000072983113790996449160000007847019517451400119_);fill:#FF4600;}
	.st44{clip-path:url(#SVGID_00000072983113790996449160000007847019517451400119_);fill:#201516;}
	.st45{clip-path:url(#SVGID_00000140695493719254806830000012650968350402698649_);fill:#201516;}
	.st46{clip-path:url(#SVGID_00000140695493719254806830000012650968350402698649_);}
	.st47{clip-path:url(#SVGID_00000057123417443419553030000007099986575756161676_);fill:#FFE8DD;}
	.st48{clip-path:url(#SVGID_00000057123417443419553030000007099986575756161676_);fill:#16E35E;}
</style>
<g>
	<g>
		<defs>
			<rect id="SVGID_00000080194022308711981920000014598944677981876899_" width="1920" height="1080"/>
		</defs>
		<clipPath id="SVGID_00000148647371582887432860000016293992767677219254_">
			<use xlink:href="#SVGID_00000080194022308711981920000014598944677981876899_"  style="overflow:visible;"/>
		</clipPath>
		
			<rect style="clip-path:url(#SVGID_00000148647371582887432860000016293992767677219254_);fill:#201516;" width="1920" height="1080"/>
		<g style="clip-path:url(#SVGID_00000148647371582887432860000016293992767677219254_);">
			<defs>
				<rect id="SVGID_00000004505304625600417450000009494997046726599607_" width="1920" height="1080"/>
			</defs>
			<clipPath id="SVGID_00000123402531231421266020000008092092114008601005_">
				<use xlink:href="#SVGID_00000004505304625600417450000009494997046726599607_"  style="overflow:visible;"/>
			</clipPath>
			<path style="clip-path:url(#SVGID_00000123402531231421266020000008092092114008601005_);fill:#FFE8DD;" d="M1201.01,831.25
				c-0.25-0.45-0.5-0.92-0.72-1.44c-2.06-4.86-3.07-10.25-3.07-16.46c-0.02-44.89-0.03-89.78-0.04-134.67l0-6.61
				c0-1.42-0.01-2.88,0.07-4.35c0.3-5.53,0.98-11.36,3.89-16.8c-0.16,0-0.33,0.01-0.49,0.01c-11.52,0-23.04,0-34.56,0
				c-0.18,0-0.37,0-0.55-0.01c-0.02,0-0.04,0-0.06,0c0.68,1.24,1.23,2.49,1.69,3.78c1.57,4.41,2.34,9.36,2.42,15.57
				c0.13,9.87,0.11,19.9,0.09,29.59c-0.01,3.12-0.01,6.24-0.01,9.36l0.01,0.07c0.06,0.53,0.23,2.14-1.29,3.32l-2.06,1.59
				l-20.03-33.99c-5.44-9.21-11.06-18.74-16.53-28.15c-0.56-0.96-0.98-1.2-2.21-1.17c-5.09,0.07-10.25,0.05-15.24,0.04
				c-2-0.01-3.98-0.01-5.99-0.01c-1.03,0-2.06,0-3.08-0.01c-2.12-0.01-4.3-0.02-6.46,0.01c0.82,1.62,1.68,3.5,2.27,5.6
				c1.92,6.77,1.94,13.74,1.97,19.89c0.11,29.23,0.1,58.95,0.08,87.69c-0.01,8.24-0.01,16.48-0.01,24.72c0,1.73,0.01,3.45,0.01,5.18
				c0.03,7.58,0.06,15.41-0.57,23.14c-0.35,4.32-1.04,9.37-3.51,14.02c-0.01,0.02-0.03,0.05-0.04,0.07h0.21c7.23,0,14.45,0,21.68,0
				l10.84,0c0.4,0,0.8,0,1.2,0.01c0.45,0.01,0.9,0.02,1.33,0.01c-2.51-4.56-3.17-9.42-3.45-13.25c-0.47-6.39-0.69-12.04-0.68-17.27
				c0.06-21.66,0.05-43.68,0.04-64.98c0-7.57-0.01-15.15-0.01-22.73v-4.93l3.86-1.1l2.32,4.01c0.92,1.6,1.84,3.19,2.78,4.77
				c10.34,17.49,20.67,34.98,31.03,52.45c1.05,1.78,1.56,3.69,1.55,5.85c-0.02,4.63-0.01,9.26-0.01,13.89
				c0.01,7.45,0.02,15.15-0.08,22.72c-0.1,6.76-0.49,13.89-3.93,20.54h35.27H1201.01z"/>
			<path style="clip-path:url(#SVGID_00000123402531231421266020000008092092114008601005_);fill:#FFE8DD;" d="M562.3,831.25
				c9.04,0,18.07,0.01,27.11-0.01c-3.92-5.87-5.7-12.52-6.92-18.32c-2.51-11.91-4.99-23.83-7.48-35.75
				c-0.61-2.96-1.22-5.91-1.83-8.87c-0.99-4.8-1.97-9.6-2.99-14.39c-0.2-0.96-0.63-2.95,1.4-4.73c5.5-4.84,9.63-11.13,12.61-19.22
				c3.87-10.51,5.08-21.97,3.59-34.06c-1.18-9.64-3.89-17.73-8.27-24.7c-6.51-10.39-15.19-16.57-26.53-18.9
				c-4.12-0.84-8.68-1.28-13.96-1.33c-10.18-0.11-20.54-0.08-30.56-0.06c-4.04,0.01-8.07,0.02-12.11,0.02c-0.27,0-0.54,0-0.82,0
				c-0.34,0-0.67-0.01-0.98,0c3.54,6.78,3.97,14.03,3.98,18.94c0.08,45.35,0.08,91.45,0.07,134.77c0,0.76,0,1.52,0.01,2.28
				c0.02,4.18,0.04,8.49-0.58,12.81c-0.5,3.52-1.29,7.63-3.3,11.52c0.17,0,0.34,0,0.52,0c7.58,0,15.12,0,22.65,0h8.48
				c0.52,0,1.04,0,1.56,0.01c0.72,0.01,1.41,0.01,2.1,0.01c-1.15-2.06-1.97-4.33-2.49-6.9c-0.96-4.69-1.41-8.58-1.4-12.25
				c0.01-5.18,0.01-10.37,0.01-15.56l0-3.93h-0.04l0-9.04c0-5.89,0-11.77,0.01-17.65c0.01-3.85,1.02-4.89,4.91-5.01l0.08,0
				c0.91-0.03,1.83-0.03,2.74-0.03c2.06,0.01,4,0.01,5.89-0.34c4.07-0.77,5.21,0.89,5.87,4.22c0.91,4.55,1.82,9.09,2.73,13.64
				c2.13,10.62,4.33,21.61,6.43,32.43c1.4,7.21,2.35,13.77-0.07,20.41L562.3,831.25z M553.09,731.4c-3.06,3.85-7.26,6.07-13.22,6.98
				l-0.44,0.07c-2.45,0.38-4.96,0.76-7.57,0.76c-0.36,0-0.72-0.01-1.08-0.02c-3.61-0.15-4.65-1.21-4.67-4.72
				c-0.02-3.81-0.02-7.61-0.02-11.42l0-43.99c0-0.38,0-0.76,0.01-1.14c0.01-0.39,0.01-0.79,0.01-1.18c0-2.41,1.57-4.01,4.02-4.08
				c4.72-0.13,9.75-0.14,14.76,1.22c4.24,1.15,7.52,3.88,10.02,8.35c2.23,3.98,3.63,8.46,4.55,14.53c1.21,8,0.72,16.13-1.45,24.18
				C556.8,725.42,555.29,728.65,553.09,731.4"/>
			<path style="clip-path:url(#SVGID_00000123402531231421266020000008092092114008601005_);fill:#FFE8DD;" d="M685.61,801.9
				c-2.28,1.49-4.95,2.75-8.28,3.91c-5.51,1.93-11.14,2.71-16.4,3.25c-4.19,0.43-8.39,0.44-12.45,0.43c-1.97,0-4.01,0-6,0.05
				c-1.57,0.04-2.49-0.57-3-1.09c-0.75-0.77-1.09-1.81-1.02-3.1c0.02-0.33,0.01-0.66,0-0.99c0-0.21-0.01-0.42-0.01-0.64l0-53.48
				c0.05-4,1.07-5.04,4.96-5.06l0.78,0c1.59-0.01,3.23-0.02,4.87,0.07c7.91,0.41,16.96,1.68,24.79,7.75l0-34.7v-0.14v-0.02
				c-0.03,0.01-0.06,0.03-0.09,0.04c-9.98,4.48-20.59,4.87-30.86,5.25l-0.11,0c-0.51,0.02-2.04,0.08-3.2-1.04
				c-1.05-1.01-1.17-2.37-1.16-3.31c0.02-7.61,0.02-15.22,0.02-22.83c0-6.24,0-12.47,0.01-18.7c0.01-3.3,1.17-4.47,4.44-4.47
				c1,0,2-0.01,3-0.01c7.31-0.04,14.86-0.07,22.31,1.36c5.4,1.04,11.11,2.46,16.31,5.8c0.1,0.07,0.2,0.13,0.3,0.2
				c-0.01-0.2-0.02-0.4-0.01-0.61l-0.01-0.03c-0.01-0.09-0.03-0.18-0.04-0.27l-0.93-7.92c-0.82-6.95-1.64-13.91-2.44-20.86
				c-0.06-0.52-0.12-0.86-0.16-1.09c-0.19,0.01-0.47,0.04-0.86,0.09c-5.45,0.77-10.45,1.17-15.35,1.13
				c-6.18-0.01-12.36-0.01-18.54-0.01l-5.59,0v0.05H607.8c-0.2,0-0.41,0-0.61-0.01c-0.04,0-0.08,0-0.12,0
				c1.21,2.46,2.04,4.68,2.59,6.91c1.48,6.03,1.62,12.03,1.65,18.69c0.11,29.4,0.09,59.28,0.07,88.19l-0.01,19.01
				c0,2.25,0.01,4.51,0.02,6.76c0.04,8.57,0.08,17.44-0.54,26.19c-0.31,4.37-0.97,9.48-3.45,14.32l-0.06,0.12
				c-0.02,0.04-0.04,0.09-0.07,0.13h0.29c5.06,0,10.07-0.01,15.09-0.02c4.59-0.01,9.24-0.02,13.92-0.02c7.76,0,15.59,0.02,23.35,0.1
				c5.41,0.05,11.23,0.2,17.04,0.93c0.65,0.08,1.31,0.14,1.97,0.2c1,0.09,2.03,0.18,3.09,0.35c0.09-0.98,0.22-1.94,0.34-2.88
				c0.07-0.54,0.14-1.08,0.2-1.62c0.72-6.14,1.43-12.27,2.14-18.41l0.21-1.78C685.14,806.04,685.38,803.97,685.61,801.9"/>
			<path style="clip-path:url(#SVGID_00000123402531231421266020000008092092114008601005_);fill:#FFE8DD;" d="M1076.56,801.9
				c-2.28,1.49-4.95,2.75-8.28,3.91c-5.51,1.93-11.14,2.71-16.4,3.25c-4.2,0.44-8.41,0.43-12.48,0.43c-1.96,0-3.99,0-5.97,0.05
				c-1.56,0.05-2.49-0.57-3-1.09c-0.75-0.77-1.09-1.81-1.02-3.1c0.02-0.33,0.01-0.66,0-0.99c0-0.21-0.01-0.42-0.01-0.64v-53.47
				c0.05-4.01,1.07-5.05,4.96-5.07l0.78,0c1.59-0.01,3.23-0.02,4.87,0.07c7.91,0.41,16.95,1.68,24.79,7.75l0-34.84v-0.02
				c-0.03,0.01-0.06,0.02-0.08,0.04c-9.98,4.48-20.59,4.87-30.86,5.25l-0.11,0c-0.5,0.02-2.04,0.08-3.2-1.04
				c-1.05-1.01-1.17-2.37-1.16-3.31c0.02-7.59,0.02-15.18,0.02-22.77c0-6.26,0-12.51,0.01-18.77c0.01-3.3,1.17-4.47,4.44-4.47
				c1,0,2-0.01,3-0.01c7.31-0.04,14.86-0.07,22.31,1.36c5.4,1.04,11.11,2.46,16.31,5.8c0.1,0.07,0.2,0.13,0.3,0.2
				c-0.01-0.2-0.02-0.4-0.01-0.61l-0.01-0.03c-0.01-0.09-0.03-0.18-0.04-0.27l-0.93-7.92c-0.82-6.95-1.64-13.9-2.44-20.86
				c-0.06-0.52-0.12-0.86-0.16-1.09c-0.19,0.01-0.47,0.04-0.86,0.09c-5.37,0.76-10.33,1.13-15.15,1.13h-0.2
				c-6.18-0.01-12.36-0.01-18.54-0.01l-5.59,0v0.05h-33.09c-0.2,0-0.41,0-0.61-0.01c-0.04,0-0.08,0-0.12,0
				c1.22,2.46,2.05,4.68,2.59,6.91c1.48,6.03,1.62,12.03,1.64,18.7c0.11,28.47,0.09,57.41,0.08,85.4c0,8.24-0.01,16.47-0.01,24.71
				c0,1.9,0.01,3.8,0.01,5.7c0.03,8.07,0.06,16.41-0.55,24.65c-0.32,4.27-0.98,9.27-3.43,14.03l-0.05,0.1
				c-0.02,0.05-0.05,0.09-0.07,0.14h1.37c4.69,0,9.35-0.01,14.02-0.02c4.59-0.01,9.24-0.02,13.92-0.02c7.76,0,15.59,0.02,23.34,0.1
				c5.41,0.05,11.23,0.2,17.04,0.93c0.65,0.08,1.3,0.14,1.96,0.2c1.01,0.09,2.04,0.18,3.1,0.35c0.09-0.98,0.21-1.95,0.34-2.88
				c0.07-0.54,0.14-1.07,0.2-1.61c0.67-5.7,1.33-11.41,1.99-17.11l0.42-3.62C1076.13,805.68,1076.35,803.79,1076.56,801.9"/>
			<path style="clip-path:url(#SVGID_00000123402531231421266020000008092092114008601005_);fill:#FFE8DD;" d="M1405.28,700.56
				l0.24-0.65c4.05-11.14,8.24-22.67,12.49-33.96c1.87-4.97,4.06-10.22,7.45-15.01c-8.81-0.02-17.61-0.02-26.42-0.02l-7.74,0
				l-0.44-0.01c-0.09,0-0.17,0-0.26,0c0.4,2.32,0.36,4.74-0.11,7.78c-0.98,6.33-2.87,12.41-4.75,18.02
				c-4.15,12.33-8.47,24.82-12.66,36.9l-1.01,2.92c-0.1,0.29-0.2,0.58-0.29,0.88c-0.42,1.31-0.91,2.8-1.9,4.22l-1.41,2.02
				l-1.91-1.55c-1.32-1.07-1.66-2.39-1.89-3.26c-0.04-0.16-0.08-0.32-0.13-0.47c-3.6-10.58-7.43-21.86-11.25-33.27
				c-0.51-1.52-1.03-3.04-1.55-4.56c-2.42-7.04-4.92-14.32-6.18-21.93c-0.48-2.91-0.51-5.37-0.09-7.7c-0.14,0-0.28,0-0.42,0l-0.37,0
				h-8.57c-8.55,0-17.1,0-25.64,0c2.43,3.3,4.04,6.97,5.6,10.54l0.36,0.82c2.7,6.15,4.98,12.55,7.18,18.73
				c0.97,2.72,1.97,5.53,2.99,8.27c2.74,7.37,5.46,14.89,8.09,22.16c1.41,3.89,2.82,7.78,4.23,11.66
				c4.84,13.26,9.69,26.52,14.55,39.78c0.58,1.58,0.86,3.23,0.85,5.05c-0.02,9.51-0.03,19.02-0.04,28.53l-0.01,14.45
				c-0.01,6.3-0.48,13.57-3.82,20.33l0.15,0h11.81h23.37c-0.58-1.11-1.04-2.13-1.41-3.14c-1.62-4.46-2.44-9.46-2.49-15.29
				c-0.07-7.21-0.07-14.53-0.07-21.61c0-6.63,0-13.48-0.06-20.21c-0.03-3.9,0.57-7.33,1.84-10.49c0.63-1.56,1.2-3.2,1.75-4.78
				c0.29-0.84,0.58-1.68,0.89-2.51l4.82-13.33C1395.77,726.78,1400.51,713.66,1405.28,700.56"/>
			<path style="clip-path:url(#SVGID_00000123402531231421266020000008092092114008601005_);fill:#FFE8DD;" d="M710.27,824.03
				c9.48,7.42,20.21,10.82,33.9,10.75h0.04l0.04,0c6.17,0.18,13.49-1.32,20.07-4.12c11.22-4.78,18.95-12.93,22.97-24.2
				c2.52-7.06,3.38-14.39,2.64-22.41c-0.63-6.85-2.18-12.92-4.72-18.55c-4.41-9.77-11.38-18.01-18.15-25.62
				c-2.98-3.35-6.17-6.63-9.26-9.8c-3.15-3.24-6.4-6.58-9.47-10.04c-3.45-3.88-7.41-8.56-10.66-13.9
				c-2.92-4.8-5.84-10.66-5.34-17.74c0.55-7.76,4.25-13.01,10.98-15.61c4.12-1.59,8.67-1.92,14.34-1.03
				c6.69,1.05,13.17,3.79,20.38,8.64c-0.36-3.42-0.74-6.84-1.11-10.25c-0.35-3.19-0.7-6.38-1.04-9.58
				c-0.4-3.72-0.77-7.43-1.14-11.15c-2.54,0.59-5.28,1.05-8.18,0.77c-3.5-0.34-7.57-0.74-11.59-1.25
				c-7.22-0.92-13.92-0.6-20.48,0.99c-9.92,2.4-17.56,7.48-22.69,15.11c-6.1,9.07-8.13,19.82-6.2,32.88
				c1.12,7.55,4.1,14.82,9.11,22.23c6.34,9.37,14.11,17.89,21.63,26.14l1.53,1.68c1.45,1.59,2.96,3.18,4.42,4.72
				c3.61,3.82,7.35,7.76,10.6,12.1c4.61,6.15,9.36,13.72,9.57,23.18c0.16,7.08-1.81,12.48-6.02,16.51
				c-5.05,4.85-11.72,6.62-19.82,5.27c-7.05-1.18-13.17-4.83-18.2-10.86c-2.02-2.42-3.67-4.79-5.01-7.22
				c-0.16,0.29-0.32,0.59-0.48,0.9c-0.22,0.42-0.44,0.83-0.67,1.24l-2.08,3.65c-2.85,5.01-5.8,10.18-8.74,15.26
				c-0.43,0.75-0.38,0.84-0.08,1.29C704.15,818.23,707.06,821.52,710.27,824.03"/>
			<path style="clip-path:url(#SVGID_00000123402531231421266020000008092092114008601005_);fill:#FFE8DD;" d="M1276.91,810.77
				h-0.05c-9.5-0.01-16.89-4.48-21.96-13.27c-2.26-3.91-3.38-8.14-4.25-12.13c-1.99-9.1-3.03-18.74-3.09-28.67
				c-0.02-3.45-0.01-6.91-0.01-10.36l0.01-4.81c0.07-3.01,0.06-6.09,0.04-9.07c-0.02-5.43-0.05-11.04,0.44-16.61
				c0.46-5.24,1.19-12.13,2.77-18.93c1.11-4.75,2.48-8.48,4.33-11.74c5.05-8.92,13.05-13.42,23.12-13.02
				c7.7,0.31,14.45,3.03,20.05,8.1c-0.03-0.24-0.06-0.48-0.09-0.72c-0.09-0.74-0.19-1.49-0.28-2.24
				c-0.72-5.94-1.43-11.89-2.14-17.83c-0.15-1.25-0.29-2.49-0.43-3.74c-0.25-2.2-0.51-4.48-0.8-6.71c-3.51,0.72-6.95,0.86-10.23,0.4
				c-4.77-0.66-8.93-0.99-12.76-0.99c-3,0-5.8,0.2-8.54,0.6c-9.28,1.37-17.19,5.27-23.5,11.6c-6.49,6.51-10.94,14.78-14.43,26.81
				c-4.16,14.31-5.12,29.18-5.52,41.84c-0.33,10.59-0.24,20.11,0.28,29.1c0.5,8.65,1.21,17.91,3.01,27.02
				c2.33,11.84,5.41,20.39,9.97,27.73c5.85,9.41,13.39,15.53,23.07,18.69c8.02,2.62,16.71,3.13,25.83,1.52
				c4.73-0.84,9.61-2.45,14.53-4.8c0.73-0.35,0.73-0.45,0.75-0.84c0.07-1.73,0.29-3.42,0.51-5.06l0.15-1.18
				c0.37-2.89,0.74-5.78,1.11-8.67c0.34-2.66,0.69-5.32,1.03-7.98l0.12-0.93c0.06-0.46,0.12-0.91,0.18-1.36
				C1293.05,808.07,1285.44,810.77,1276.91,810.77"/>
			<path style="clip-path:url(#SVGID_00000123402531231421266020000008092092114008601005_);fill:#FFE8DD;" d="M946.75,801.64
				c-3.73,2.47-8.1,4.26-13.32,5.46c-10.46,2.4-26.87,2.45-33.44,2.36c-3.45-0.05-4.48-1.05-4.58-4.49c-0.01-0.5-0.01-1-0.01-1.5
				l0-0.6l0-79.98c-0.01-15.1-0.01-30.71,0.03-46.06c0.01-4.65,0.21-8.89,0.6-12.95c0.52-5.4,1.64-9.44,3.59-12.98
				c-2.16-0.02-4.32-0.01-6.48-0.01l-3.09,0.01l-7.45,0c-6.18,0-12.35-0.01-18.53,0.01c1.15,2.17,2,4.52,2.6,7.15
				c1.29,5.67,1.56,11.33,1.58,18.08c0.09,29.83,0.08,60.15,0.06,89.47l-0.01,22.92c0,1.76,0.01,3.52,0.02,5.28
				c0.03,7.63,0.07,15.53-0.57,23.33c-0.36,4.38-1.06,9.47-3.55,14.12c0.26,0,0.51,0,0.76,0h0.29c4.64,0,9.28-0.01,13.92-0.02
				c4.57-0.01,9.2-0.02,13.85-0.02c7.38,0,14.83,0.02,22.21,0.11c10.45,0.12,17.84,0.42,21.96,0.9c0.88,0.1,1.76,0.22,2.64,0.34
				c1.09,0.14,2.2,0.29,3.3,0.41c0.03-0.36,0.05-0.72,0.08-1.09c0.04-0.62,0.08-1.27,0.16-1.93c0.48-4.05,0.96-8.1,1.45-12.15
				c0.63-5.24,1.26-10.49,1.87-15.74C946.73,801.93,946.74,801.78,946.75,801.64"/>
			<path style="clip-path:url(#SVGID_00000123402531231421266020000008092092114008601005_);fill:#FFE8DD;" d="M836.61,806.32
				c-0.12-15.21-0.13-30.36-0.03-45.03c0.08-11.15,0.03-22.5-0.03-33.47c-0.09-19.48-0.19-39.63,0.45-59.46
				c0.19-5.72,0.79-11.77,3.84-17.43c-0.06,0-0.11,0-0.17,0l-0.51,0l-34.79-0.01c-0.06,0-0.11,0-0.17,0c1.63,3.1,2.6,5.91,3.05,8.78
				c0.78,5.01,1.19,10.08,1.21,15.06c0.04,9.88,0.09,21.38,0,32.83c-0.09,13.05-0.04,26.33,0.02,39.17
				c0.09,21.89,0.18,44.53-0.44,66.82c-0.16,5.84-0.74,11.99-3.7,17.69c0.08,0,0.17,0,0.25,0h17.41c0.47,0,0.94,0,1.4,0
				c1.47,0,2.95,0,4.43,0c3.87,0,7.86,0.01,11.81-0.02c-1.78-3.33-2.52-6.82-3-9.86C836.8,815.95,836.65,810.48,836.61,806.32"/>
			<path style="clip-path:url(#SVGID_00000123402531231421266020000008092092114008601005_);fill:#FFE8DD;" d="M935.48,779.71
				c9.29,0,18.58,0,27.87,0c0.78,0,1.55,0,2.33,0.01c1.43,0.01,2.91,0.01,4.36,0c-0.88-1.67-1.57-3.41-2.1-5.3
				c-1.71-6.1-1.89-12.21-1.95-19c-0.03-3.54-0.05-5.61-0.06-6.82c-0.01-0.04-0.01-0.07-0.01-0.11l-0.02,0c0-0.02,0-0.06,0-0.15
				c-0.01-0.12-0.01-0.25-0.01-0.38c0-0.24,0-0.53,0.02-0.84c0-0.11,0-0.16-0.01-0.19h0.01c0.01-1.52,0.01-4.49,0.01-10.33v-0.05
				c0.16-7.75,0.09-16.28,0.02-25.3c-0.11-14.42-0.23-29.34,0.48-44.6c0.21-4.46,0.83-10.23,3.76-15.71
				c-11.63-0.02-23.61-0.02-35.61,0c1.51,2.8,2.53,5.72,3.03,8.67c0.8,4.69,1.2,9.67,1.21,14.8l0,2.89
				c0.03,25.51,0.03,25.51,0.03,38.93l-0.01,20.45c0,1.79,0.01,3.59,0.02,5.38c0.03,7.7,0.07,15.65-0.57,23.51
				c-0.38,4.72-0.98,9.7-3.59,14.14c0.16,0,0.31,0,0.45,0.01L935.48,779.71z"/>
			<path style="clip-path:url(#SVGID_00000123402531231421266020000008092092114008601005_);fill:#FFE8DD;" d="M780.67,884.65
				c-0.42-0.4-0.97-0.16-1.26,0.02c-6.25,3.65-17.34,0.82-26.25-1.45l-0.16-0.04c-5.3-1.51-10.55-2.32-14.82-2.31
				c-5.99,0-11.25,1.96-14.84,5.52c-3.45,3.43-5.28,8.2-5.28,13.79c0,3.59,1.95,7.4,5.57,7.4c1.35,0,2.6-0.53,3.42-1.46
				c0.93-1.06,1.3-2.59,1.07-4.42c-0.14-1.18-0.5-2.11-0.88-3.08c-0.45-1.16-0.91-2.36-0.96-3.94c-0.38-2.46,0.25-4.79,1.77-6.57
				c1.89-2.21,4.93-3.43,8.57-3.43c5.11,0,10.28,1.9,15.75,3.9c5.72,2.1,11.64,4.26,17.73,4.26c4.83,0,8.39-1.94,10.58-5.78
				C781.25,886.03,781.11,885.06,780.67,884.65"/>
			<path style="clip-path:url(#SVGID_00000123402531231421266020000008092092114008601005_);fill:#FFE8DD;" d="M753.05,894.41
				c-0.09-0.1-0.21-0.15-0.37-0.13c-2.38,0.25-5.42,0.26-7.73,0c-0.37-0.04-0.66,0.21-0.75,0.64l-9.58,44.39
				c-0.04,0.22,0.02,0.45,0.16,0.61c0.1,0.11,0.21,0.16,0.35,0.14c1.26-0.16,2.52-0.22,3.71-0.22c1.56,0,2.99,0.11,4.1,0.23
				c0.37,0.04,0.67-0.21,0.75-0.64l9.5-44.4C753.24,894.8,753.18,894.56,753.05,894.41"/>
			<path style="clip-path:url(#SVGID_00000123402531231421266020000008092092114008601005_);fill:#FFE8DD;" d="M798.75,934.06
				c-1.71,1.17-2.94,1.7-3.99,1.7c-0.83,0-1.52-0.31-2-0.9c-0.9-1.12-1.01-3.2-0.33-6.35l3.33-15.49c0.89-4.32,0.32-7.77-1.68-10.22
				c-2.95-3.62-8.02-4.01-10.07-4.01c-10.01,0-14.74,4.94-15.83,9.57c-0.27,1.24-0.02,2.45,0.7,3.31c0.64,0.78,1.57,1.2,2.62,1.16
				c2.52-0.07,4.22-1.72,5.2-5.03c0.58-1.87,1.94-6.21,6.73-6.21c1.66,0,3.15,0.69,4.11,1.88c0.79,1,1.59,2.83,0.89,5.88l-0.53,2.42
				c-0.94,2.63-5.21,3.75-11.11,5.31l-0.65,0.17c-7.74,2.11-14.93,5.26-15,13.92c0,4.7,3.22,9.48,10.4,9.56
				c3.99,0,8.15-2.37,10.86-6.17l1.1-1.55l0.28,1.88c0.71,4.76,4.01,5.76,6.66,5.76c3.08,0.05,6.38-1.54,9.1-4.42
				c0.65-0.73,0.55-1.76,0.19-2.18C799.62,933.93,799.38,933.65,798.75,934.06 M786.59,917.58c-0.61,2.83-1.32,5.94-2.24,9.78
				c-0.01,0.14-0.05,0.26-0.08,0.34v0.03l-0.05,0.13c-1.71,4.51-5.82,7.9-9.54,7.9c-3.25,0-5.51-2.2-5.51-5.35
				c0-5.01,4.46-7.58,9.84-10.18l0.37-0.16c2.09-0.93,4.25-1.88,5.99-3.25l1.67-1.3L786.59,917.58z"/>
			<path style="clip-path:url(#SVGID_00000123402531231421266020000008092092114008601005_);fill:#FFE8DD;" d="M854.97,899.87h-8.68
				l3.02-14.99c0.14-0.65-0.29-0.9-0.55-0.99c-0.44-0.16-1.05-0.07-1.35,0.5c-6.36,13.05-11.63,15.15-15.94,15.48l-11.33,0l0.2-0.92
				c1.39-6.56,2.34-11.13,3-14.4c0.14-0.68-0.32-0.93-0.53-1c-0.42-0.15-1-0.06-1.29,0.51c-3.87,7.64-8.71,15.82-17.16,15.9
				c-0.2,0-0.35,0.06-0.44,0.36l-0.57,2.86c0,0.05,0.02,0.08,0.03,0.09c0.03,0.03,0.1,0.07,0.21,0.07h6.93l-4.43,22.4
				c-1.02,5.13-0.44,9.2,1.66,11.76c1.69,2.06,4.4,3.15,7.83,3.15c4.39,0,8.84-1.77,11.35-4.5c0.69-0.73,0.62-1.76,0.27-2.19
				c-0.09-0.11-0.32-0.39-0.96,0.01c-2.34,1.28-4.31,1.87-6.24,1.87c-1.9,0-3.38-0.61-4.37-1.81c-1.32-1.59-1.67-4.06-1.04-7.34
				c0.73-3.65,2.65-13.17,4.67-22.75l0.13-0.61h17.37l-4.34,22.4c-0.98,5.12-0.37,9.18,1.76,11.76c1.71,2.07,4.41,3.16,7.81,3.16
				c4.43,0,8.81-1.73,11.44-4.51c0.64-0.72,0.54-1.75,0.18-2.18c-0.09-0.11-0.33-0.39-0.97,0.02c-2.37,1.3-4.28,1.87-6.24,1.87
				c-1.84,0-3.34-0.62-4.34-1.81c-1.33-1.58-1.73-4.11-1.16-7.34l4.71-23.37h8.62c0.22,0,0.26,0,0.34-0.34l0.57-2.93
				c0.01-0.06-0.01-0.11-0.04-0.15C855.06,899.88,855.02,899.87,854.97,899.87"/>
			<path style="clip-path:url(#SVGID_00000123402531231421266020000008092092114008601005_);fill:#FFE8DD;" d="M878.37,898.78
				c-5.12,0-9.73,1.94-13.34,5.61c-4.78,4.86-7.44,12.4-7.3,20.68c0.32,14.45,11.03,15.57,14.31,15.57
				c13.41,0,20.64-13.42,20.64-26.05C892.68,900.32,882.68,898.78,878.37,898.78 M884.22,912.95L884.22,912.95
				c-0.33,9.72-4.2,23.4-11.76,23.4c-1.67,0-3.04-0.57-4.08-1.7c-1.83-1.99-2.53-5.62-2.1-10.79c0.32-5,1.49-10.03,3.2-13.79
				c2.16-4.73,5.06-7.24,8.39-7.24c1.69,0,3.08,0.54,4.12,1.62C883.59,906.09,884.34,908.95,884.22,912.95"/>
			<path style="clip-path:url(#SVGID_00000123402531231421266020000008092092114008601005_);fill:#FFE8DD;" d="M918.02,898.78
				c-5.12,0-9.73,1.94-13.34,5.61c-4.78,4.86-7.44,12.39-7.3,20.67c0.31,14.45,11.03,15.58,14.31,15.58
				c13.41,0,20.64-13.42,20.64-26.05C932.33,900.32,922.32,898.78,918.02,898.78 M923.86,912.95L923.86,912.95
				c-0.33,9.72-4.2,23.4-11.76,23.4c-1.67,0-3.04-0.57-4.08-1.7c-1.83-1.99-2.53-5.62-2.1-10.79c0.32-5,1.49-10.03,3.2-13.79
				c2.16-4.73,5.06-7.24,8.39-7.24c1.69,0,3.08,0.54,4.12,1.62C923.23,906.09,923.98,908.95,923.86,912.95"/>
			<path style="clip-path:url(#SVGID_00000123402531231421266020000008092092114008601005_);fill:#FFE8DD;" d="M1001.87,912.25
				c-2.29-2.03-4.82-3.98-7.5-6.04c-1.54-1.19-3.14-2.42-4.71-3.68c-3.49-2.69-5.12-5.53-5.12-8.92c0-4.18,2.9-8.68,9.26-8.68
				c2.78,0,4.78,0.77,5.95,2.29c1.19,1.55,1.43,3.73,0.7,6.5c-0.65,2.46,0.02,4.01,0.69,4.88c0.8,1.03,2.04,1.65,3.32,1.65
				c3.3,0,5.43-2.72,5.57-7.09c0.03-2.46-0.97-4.8-2.89-6.74c-2.91-2.94-7.55-4.63-12.75-4.63c-13.96,0-17.86,9.43-17.97,14.41
				c-0.08,6.65,3.15,11.42,11.92,17.6l0.35,0.26c4.55,3.33,9.72,7.11,9.72,12.78c0,6.28-4.48,10.34-11.42,10.34
				c-3.07,0-5.59-1.03-7.11-2.9c-1.57-1.94-2.01-4.61-1.3-7.93c0.33-1.72-0.02-3.36-0.99-4.59c-0.77-0.98-1.85-1.58-2.97-1.65
				c-1.63-0.05-3.04,0.4-4.07,1.36c-1.25,1.16-1.95,3.02-2.03,5.4c-0.07,3.09,1.2,6.13,3.59,8.58c3.33,3.41,8.56,5.29,14.72,5.29
				c12.37,0,21.06-6.78,21.14-16.48C1007.94,919.77,1005.96,915.85,1001.87,912.25"/>
			<path style="clip-path:url(#SVGID_00000123402531231421266020000008092092114008601005_);fill:#FFE8DD;" d="M1039.77,899.95
				h-8.69l3.11-14.99c0.11-0.68-0.39-0.93-0.61-1c-0.11-0.04-0.24-0.06-0.37-0.06c-0.35,0-0.71,0.16-0.93,0.57
				c-3.97,8.03-8.78,15.48-16.99,15.57c-0.2,0-0.35,0.06-0.44,0.36l-0.57,2.86c0,0.05,0.03,0.08,0.04,0.09
				c0.03,0.03,0.1,0.07,0.21,0.07h7.01l-4.34,22.4c-0.97,5.11-0.36,9.17,1.76,11.74c1.72,2.08,4.45,3.18,7.9,3.18
				c4.39,0,8.84-1.77,11.35-4.5c0.65-0.72,0.55-1.76,0.19-2.19c-0.09-0.11-0.33-0.39-0.97,0.02c-2.23,1.27-4.23,1.87-6.16,1.87
				c-1.88,0-3.35-0.6-4.35-1.78c-1.34-1.57-1.76-4.04-1.23-7.35l4.71-23.38h8.62c0.29,0,0.3-0.05,0.32-0.25l0.61-3.11
				c0.01-0.02,0.01-0.02-0.01-0.03C1039.92,899.99,1039.86,899.95,1039.77,899.95"/>
			<path style="clip-path:url(#SVGID_00000123402531231421266020000008092092114008601005_);fill:#FFE8DD;" d="M1065.49,930.14
				l0.04,2.59c0.08,5.38,2.17,7.92,6.58,7.99c3.16,0.05,6.54-1.54,9.26-4.42l0,0c0.68-0.72,0.61-1.75,0.26-2.18
				c-0.09-0.11-0.32-0.39-0.96,0.02c-2.87,1.98-4.92,2.17-6.03,0.8c-0.94-1.17-1.07-3.39-0.37-6.6c1.31-6.23,4.3-20.11,6-27.66
				c0.04-0.22,0-0.46-0.11-0.58c-0.1-0.11-0.3-0.11-0.44-0.08c-2.13,0.24-4.7,0.21-7.28-0.08c-0.54-0.06-0.71,0.49-0.75,0.66
				l-5.1,23.82l-0.04,0.09c0,0.01,0,0.04,0,0.07v0.13l-0.04,0.12c-1.94,5.65-6.7,10.43-10.38,10.43c-4.1,0-4.1-3.52-4.1-4.68
				c0-2.61,2.72-15.43,4.9-25.73l0.86-4.07c0.04-0.21-0.02-0.45-0.16-0.6c-0.1-0.11-0.21-0.16-0.35-0.14c-2.46,0.25-5.02,0.25-7.4,0
				c-0.37-0.04-0.67,0.21-0.75,0.64l-4.91,25.48c-1.11,5.63-0.68,9.7,1.27,12.08c1.36,1.66,3.48,2.5,6.3,2.5
				c6.18,0,10.39-5.25,12.34-8.39L1065.49,930.14z"/>
			<path style="clip-path:url(#SVGID_00000123402531231421266020000008092092114008601005_);fill:#FFE8DD;" d="M1115.23,939.98
				c0.36,0.04,0.66-0.21,0.75-0.64l10.66-55.37c0.06-0.34-0.01-0.6-0.1-0.7c-0.02-0.02-0.08-0.08-0.24-0.06
				c-2.45,0.25-4.52,0.25-6.9,0c-0.38-0.03-0.63,0.06-0.75,0.64l-4.3,22.34l-0.98-2.28c-1.43-3.31-4.39-5.2-8.12-5.2
				c-9.33,0-19.39,11.04-19.39,28.88c0,7.98,4.24,13.14,10.81,13.14c4.15,0,7.84-2.16,10.96-6.43l2.1-2.88l-1.65,7.82
				c-0.04,0.21,0.02,0.45,0.16,0.6c0.1,0.11,0.21,0.16,0.35,0.14C1111.05,939.72,1112.92,939.73,1115.23,939.98 M1100.91,935.76
				c-1.9,0-3.44-0.61-4.56-1.83c-1.54-1.66-2.21-4.42-1.95-7.99c0.67-9.39,5.05-22.61,12.67-22.61c1.78,0,3.28,0.68,4.34,1.98
				c1.92,2.34,2.39,6.58,1.32,11.92C1111.66,922.81,1108.37,935.76,1100.91,935.76"/>
			<path style="clip-path:url(#SVGID_00000123402531231421266020000008092092114008601005_);fill:#FFE8DD;" d="M1146.21,933.81
				c-1.42,0.98-3.56,2.04-5.24,2.04c-1.3,0-2.31-0.43-3-1.29c-1.08-1.32-1.3-3.58-0.66-6.71c0.42-2.01,1.26-5.89,2.2-10.24
				c1.29-5.98,2.77-12.85,3.63-17c0.04-0.23,0-0.46-0.1-0.57c-0.13-0.13-0.39-0.12-0.54-0.1c-2.45,0.27-4.93,0.24-7.21-0.08
				c-0.05-0.01-0.1-0.01-0.15-0.01c-0.57,0-0.72,0.66-0.74,0.74l-5.42,26.33c-1.1,4.9-0.66,8.76,1.27,11.16
				c1.39,1.73,3.54,2.65,6.23,2.65c3.6,0,7.89-1.95,10.43-4.75c0.69-0.73,0.62-1.76,0.27-2.19
				C1147.08,933.69,1146.85,933.4,1146.21,933.81"/>
			<path style="clip-path:url(#SVGID_00000123402531231421266020000008092092114008601005_);fill:#FFE8DD;" d="M1140.55,893.09
				c2.98,0,6.06-1.8,6.06-4.82c0-3.18-3.08-4.9-5.98-4.9c-2.9,0-5.98,1.72-5.98,4.9C1134.65,891.29,1137.65,893.09,1140.55,893.09"
				/>
			<path style="clip-path:url(#SVGID_00000123402531231421266020000008092092114008601005_);fill:#FFE8DD;" d="M1172.2,898.87
				c-5.12,0-9.73,1.94-13.34,5.61c-4.78,4.86-7.44,12.39-7.3,20.67c0.31,14.45,11.03,15.58,14.31,15.58
				c13.4,0,20.64-13.42,20.64-26.05C1186.51,900.41,1176.5,898.87,1172.2,898.87 M1178.04,913.03L1178.04,913.03
				c-0.33,9.72-4.19,23.4-11.76,23.4c-1.67,0-3.04-0.57-4.08-1.7c-1.83-1.99-2.53-5.62-2.1-10.79c0.32-5,1.49-10.03,3.2-13.79
				c2.16-4.73,5.06-7.24,8.39-7.24c1.69,0,3.08,0.54,4.12,1.62C1177.41,906.18,1178.16,909.03,1178.04,913.03"/>
			<path style="clip-path:url(#SVGID_00000123402531231421266020000008092092114008601005_);fill:#FFE8DD;" d="M910.59,383.7
				l-4.35-2.27l-1.58-1.35c-6.79,7.59-16.76,12.05-26.93,12.05c-0.19,0-0.38,0-0.56-0.01c-10.37-0.16-20.44-4.95-27.12-12.87
				l-4.93,3.96c5.69,6.79,13.59,11.73,22.33,13.95l7.12,1.8l-7.34-0.15c-9.38-0.19-17.16-2.2-20.54-3.63l-2.85,5.65
				c4.86,2.2,14.35,4.43,24.83,4.43c2.1,0,4.16-0.09,6.13-0.27C891.42,403.48,903.77,396.13,910.59,383.7"/>
			
				<rect x="997.44" y="407.02" transform="matrix(0.521 -0.8536 0.8536 0.521 129.3639 1050.8837)" style="clip-path:url(#SVGID_00000123402531231421266020000008092092114008601005_);fill:#FFE8DD;" width="7.1" height="6.31"/>
			
				<rect x="872.85" y="414.96" style="clip-path:url(#SVGID_00000123402531231421266020000008092092114008601005_);fill:#FFE8DD;" width="6.32" height="6.6"/>
			
				<rect x="1028.35" y="414.45" style="clip-path:url(#SVGID_00000123402531231421266020000008092092114008601005_);fill:#FFE8DD;" width="6.31" height="6.6"/>
			<path style="clip-path:url(#SVGID_00000123402531231421266020000008092092114008601005_);fill:#FFE8DD;" d="M1082.41,355.41
				l-0.19,0.06l-0.19-0.04c-5.34-0.99-11.06-5.81-17-14.32c-12.85-18.39-27.34-29.71-44.29-34.59
				c-18.43-5.31-44.43-3.84-58.52,11.75l4.79,4.12c5.41-5.92,13.57-9.9,23.64-11.53c9.11-1.47,19.44-0.85,28.35,1.72
				c15.51,4.47,28.87,14.98,40.86,32.14c3.42,4.89,6.87,8.78,10.26,11.55l1.8,1.47l-2.44,0.02h-0.18c-6.92,0-13.21-3.83-19.88-7.89
				c-5.51-3.36-11.2-6.83-17.62-8.31c-16.11-3.71-31.25-1.75-42.65,5.51c-7.14,4.55-12.75,10.85-16.23,18.22l-0.99,2.11l-0.58-2.26
				c-2.1-8.2-4.29-15.36-6.05-21.1l-0.9-2.93l-6.04,1.82l0.9,2.96c2.9,9.47,7.29,23.78,9.96,39.14l0.15,0.86l-0.04,0.01
				c3.65,28.02-0.79,42.24-15.22,48.98l-0.36,0.17l-0.35-0.17c-14.42-6.76-18.85-20.97-15.2-48.98l-0.03-0.01l0.14-0.86
				c2.67-15.36,7.06-29.68,9.96-39.15l0.9-2.96l-6.05-1.82l-0.89,2.93c-1.76,5.75-3.96,12.91-6.06,21.11l-0.58,2.26l-1-2.11
				c-3.48-7.37-9.09-13.67-16.22-18.22c-11.4-7.26-26.54-9.22-42.65-5.51c-6.43,1.48-12.11,4.95-17.62,8.3
				c-6.5,3.96-12.63,7.7-19.34,7.89l-2.46,0.07l1.91-1.56c3.39-2.77,6.83-6.65,10.25-11.54c11.99-17.16,25.36-27.67,40.86-32.14
				c13.63-3.93,33.02-3.88,46.18,4.88l1.41,1l2.38-6.01l-1.41-0.99c-15.73-9.8-36.87-8.81-50.31-4.94
				c-16.95,4.88-31.44,16.19-44.29,34.59c-5.82,8.33-11.42,13.11-16.66,14.25l0.07,0.48l-1.24-0.34c-3.05-0.88-5.85-1.53-8.79-0.53
				l2.58,5.85c1.23-0.18,2.81,0.26,5.32,0.99c3.24,0.95,7.67,2.26,13.66,2.26c8.7,0,16.05-4.48,23.17-8.82
				c5.31-3.24,10.32-6.29,15.75-7.54c3.6-0.83,8.61-1.66,14.23-1.66c7.45,0,15.95,1.46,23.61,6.34
				c11.38,7.26,17.91,19.48,17.05,31.9l-0.01,0.08c-5.79,34.02-0.52,57.83,15.66,70.77c1.73,1.39,3.89,2.15,6.08,2.15
				c2.19,0,4.35-0.76,6.08-2.15c16.18-12.94,21.45-36.75,15.66-70.77l-0.01-0.08c-0.86-12.42,5.67-24.64,17.06-31.9
				c13.44-8.56,29.47-6.61,37.84-4.68c5.42,1.25,10.43,4.3,15.74,7.54c7.12,4.34,14.48,8.83,23.17,8.83c6,0,10.42-1.3,13.65-2.25
				l0.25,0.8l-0.24-0.81c2.51-0.74,4.09-1.18,5.32-0.99l2.57-5.85C1087.95,353.99,1085.2,354.62,1082.41,355.41 M966.68,435.95
				c-2.57,5.8-6.19,10.6-10.79,14.27l0,0c-0.63,0.5-1.38,0.75-2.14,0.75c-0.75,0-1.51-0.25-2.14-0.75
				c-4.59-3.67-8.22-8.47-10.78-14.27l-1.6-3.62l2.93,2.66c2.52,2.29,5.52,4.23,8.9,5.77c0.75,0.34,1.6,0.56,2.46,0.62l0.34,0.01
				l0.11-0.01c0.86-0.06,1.71-0.27,2.46-0.62c3.39-1.55,6.38-3.49,8.91-5.78l2.93-2.66L966.68,435.95z"/>
			
				<rect x="903.36" y="406.63" transform="matrix(0.8534 -0.5212 0.5212 0.8534 -80.9241 532.5837)" style="clip-path:url(#SVGID_00000123402531231421266020000008092092114008601005_);fill:#FFE8DD;" width="6.31" height="7.1"/>
			<path style="clip-path:url(#SVGID_00000123402531231421266020000008092092114008601005_);fill:#FFE8DD;" d="M1135.03,254.02
				l-48.95,0.34l-0.23,0.19c-8.19,6.67-16.98,10.06-26.11,10.06c-4.44,0-8.95-0.81-13.4-2.4l-0.45-0.16l-0.98,0.82
				c-6.9,5.73-14.4,8.63-22.28,8.63c-2.34,0-4.53-0.26-6.53-0.67c-2.01-0.41-3.83-0.98-5.44-1.61c0,0-2.7-0.97-4.61-2.21l5.24-4.68
				c0.45,0.31,1.07,0.69,1.84,1.03c6.18,2.39,15.34,3.51,25.32-3.49l1.06-0.75l-1.12-0.66c-1.75-1.04-3.03-1.97-3.75-2.52l4.13-4.77
				c3.46,2.67,19.74,13.7,38.77,1.6l0.39-0.25l-0.03-4.43l48.83-0.34l-0.56-1.19c-2.65-5.63-9.19-15.07-23.2-15.07
				c-1.49,0-2.96,0.37-4.3,1.08l-3.46-5.3c1.75-1.02,3.66-1.68,5.68-1.95l0.76-0.1l-0.04-0.77c-0.33-6.01-5.29-10.72-11.31-10.72
				c-1.45,0-2.86,0.27-4.19,0.8l-0.39,0.15l-0.11,0.4c-1.51,5.47-4.27,10.6-8,14.89l-4.68-4.25c5-5.81,7.75-13.19,7.75-20.88
				c0-17.64-14.35-32-32-32c-5.37,0-10.69,1.36-15.38,3.94l-0.5,0.27l0.06,0.56c0.38,3.25,0.58,6.53,0.58,9.76
				c0,3.12-0.18,6.26-0.52,9.36l-6.27-0.77c0.32-2.84,0.48-5.72,0.48-8.59c0-42.15-34.29-76.45-76.45-76.45
				c-14,0-27.73,3.84-39.69,11.11c-11.92,7.24-21.62,17.59-28.08,29.92l-0.46,0.87l0.93,0.31c16.61,5.58,30.3,17.72,37.68,33.37
				l-5.75,2.61c-11.4-24.12-38.4-37.43-64.52-31.7c-13.88,3.04-26.14,11.26-34.54,23.15c-8.37,11.84-12.05,26.11-10.37,40.16
				l0.07,0.64l0.64,0.09c2.4,0.36,4.68,1.1,6.78,2.22l-3.18,5.46c-2.08-1.05-4.4-1.6-6.79-1.6c-9.05,0-16.11,2.45-20.98,7.27
				c-4.14,4.1-5.8,9.07-6.47,12.52l-0.2,1h25.2l0.95,1.2c0.07,0.09,7.49,9.07,18.39,9.95c6.93,0.56,13.96-2.2,20.9-8.19l4.21,4.71
				c-0.33,0.29-0.67,0.57-1.02,0.86l-0.97,0.8l1.1,0.59c5.62,3.02,16.98,7.16,29.97,1.02l1.39-0.66l-1.31-0.81
				c-1.75-1.09-3.42-2.26-5-3.49l3.97-4.91c6.04,4.72,15.78,10.26,28.25,10.26c7.19,0,15.28-1.84,24.08-6.74
				c1.26-0.63,2.31-1.29,3.17-1.93l-6.66,10.77l-2.5,0.85c-5.95,2.19-11.98,3.3-17.93,3.3c-6.4,0-12.77-1.28-18.94-3.8l-0.4-0.17
				l-0.37,0.24c-6.79,4.34-13.97,6.54-21.34,6.54c-10.38,0-18.7-4.36-22.74-6.96l-0.42-0.27l-0.44,0.24
				c-5.77,3.18-11.72,4.53-17.61,4.03c-10.86-0.92-18.61-7.9-21.44-10.86l-0.25-0.26H769.2v-3.16c0-0.07,0.07-6.99,3.86-14.22
				c4.94-9.43,13.59-14.76,25.7-15.84l0.85-0.07l-0.09-0.85c-3.31-31.97,18.62-62.39,49.93-69.25c8.63-1.9,17.43-1.97,26.15-0.21
				l0.63,0.13l0.29-0.58c6.84-13.79,17.38-25.39,30.47-33.52c13.13-8.16,28.24-12.47,43.7-12.47c9.66,0,19.12,1.66,28.13,4.92
				c8.71,3.15,16.78,7.73,24,13.61c14.48,11.78,24.67,28.23,28.68,46.32l0.22,1.02l0.95-0.43c5.06-2.33,10.45-3.51,16.02-3.51
				c21.13,0,38.31,17.19,38.31,38.31l0,1.11l0.94-0.11c0.78-0.1,1.58-0.15,2.36-0.15c10.67,0,19.35,8.68,19.35,19.37l0,0.74
				l0.66,0.14c15.27,3.39,22.17,16.82,23.85,24.22L1135.03,254.02z"/>
			<path style="clip-path:url(#SVGID_00000123402531231421266020000008092092114008601005_);fill:#FFE8DD;" d="M1060.81,395.18
				c-3.48,1.48-11.51,3.53-21.15,3.64l-7.08,0.08l6.87-1.73c8.76-2.21,16.67-7.15,22.36-13.95l-4.93-3.96
				c-6.68,7.92-16.75,12.71-27.12,12.87c-10.41,0.12-20.61-4.37-27.49-12.05l-2.48,2.12l-2.88,1.5
				c6.82,12.43,19.17,19.79,35.78,21.29c1.97,0.18,4.04,0.27,6.13,0.27c10.48,0,19.98-2.23,24.83-4.43L1060.81,395.18z"/>
			
				<rect x="1055.52" y="412.18" transform="matrix(0.8649 -0.5019 0.5019 0.8649 -65.4697 587.4379)" style="clip-path:url(#SVGID_00000123402531231421266020000008092092114008601005_);fill:#FFE8DD;" width="6.32" height="6.35"/>
			
				<rect x="845.66" y="412.2" transform="matrix(0.5018 -0.865 0.865 0.5018 63.5918 941.1267)" style="clip-path:url(#SVGID_00000123402531231421266020000008092092114008601005_);fill:#FFE8DD;" width="6.35" height="6.32"/>
			
				<rect x="928.69" y="528.67" transform="matrix(1.111486e-03 -1 1 1.111486e-03 420.5909 1484.7072)" style="clip-path:url(#SVGID_00000123402531231421266020000008092092114008601005_);fill:#FFE8DD;" width="49.57" height="6.32"/>
			<path style="clip-path:url(#SVGID_00000123402531231421266020000008092092114008601005_);fill:#FFE8DD;" d="M1076.81,469.97
				L1076.81,469.97c-0.12,0.27-0.24,0.58-0.36,0.93l-0.07,0.19c-0.02,0.05-0.04,0.1-0.05,0.15l-0.03,0.14
				c-0.63,2.07-0.67,4.54-0.12,7.15c0.22,1.04,0.51,2.06,0.84,3.2c0.51,1.74,0.98,3.37,0.97,4.89c-0.02,3.01-2.34,5.91-5.22,6.74
				l0.89,6.29c5.99-1.26,10.61-6.8,10.66-12.98c0.02-2.44-0.64-4.7-1.22-6.7l-0.05-0.16c-0.24-0.84-0.49-1.7-0.68-2.57
				c-0.01-0.04-0.02-0.09-0.03-0.13l-0.01-0.03c-0.71-2.77,0.27-4.64,0.46-4.97l0.02-0.03c1.34-2.53,4.45-4.09,7.25-3.75l1.64-6.13
				C1085.68,461.01,1079.27,464.31,1076.81,469.97"/>
			
				<rect x="1098.98" y="316.4" transform="matrix(0.5019 -0.8649 0.8649 0.5019 274.3434 1115.4834)" style="clip-path:url(#SVGID_00000123402531231421266020000008092092114008601005_);fill:#FFE8DD;" width="13.34" height="6.32"/>
			<path style="clip-path:url(#SVGID_00000123402531231421266020000008092092114008601005_);fill:#FFE8DD;" d="M828.8,486.61
				L828.8,486.61c-0.01-1.51,0.47-3.15,0.97-4.88c0.33-1.14,0.62-2.17,0.84-3.2c0.55-2.6,0.51-5.07-0.12-7.15l-0.04-0.12v-0.03
				c-0.02-0.05-0.03-0.1-0.05-0.14l-0.07-0.18c-0.13-0.36-0.24-0.66-0.36-0.93c-2.46-5.67-8.88-8.96-14.89-7.77l1.65,6.13
				c2.81-0.34,5.93,1.22,7.26,3.76l0.06,0.1c0.27,0.5,1.07,2.3,0.41,4.88l0,0.02c-0.01,0.05-0.02,0.09-0.03,0.14
				c-0.18,0.88-0.44,1.74-0.68,2.58l-0.04,0.15c-0.58,2-1.24,4.26-1.22,6.7c0.04,6.17,4.66,11.72,10.66,12.98l0.89-6.28
				C831.14,492.52,828.82,489.62,828.8,486.61"/>
			<path style="clip-path:url(#SVGID_00000123402531231421266020000008092092114008601005_);fill:#FFE8DD;" d="M1094.49,441.69
				c-4.41-2.14-9.68-2.26-14.47-0.32l-1.37,0.55l0.22-1.46c2.06-13.43,2.9-24.96,3.25-32.51l-6.31-0.27
				c-2.24,50.13-14.4,91.53-36.16,123.06c-19.23,27.88-42.42,42.57-58.49,49.99l-2.17,1l1.07-2.14c2.13-4.27,3.65-9.19,4.53-14.61
				c0.43-2.68,0.78-5.48,1.03-8.3l0.05-0.59l0.57-0.15c13.3-3.53,27.23-12.81,38.23-25.47c11.46-13.19,17.62-27.65,18.84-44.21
				c0.61-8.31-0.66-15.37-3.79-20.99c-2.5-4.48-6.42-7.49-11.66-8.93l-0.54-0.15l-0.07-0.56c-1.3-11.01-5.18-21.44-11.25-30.2
				l-5.89,2.67c1.34,6.26,1.68,17.06-1.62,27.99l-0.14,0.47l-0.48,0.11c-5,1.1-11.03,3.12-17.91,6.01
				c-11.5,4.82-23.85,7.24-36.2,7.24c-12.35,0-24.7-2.41-36.2-7.24c-6.89-2.89-12.91-4.91-17.91-6.01l-0.48-0.11l-0.14-0.47
				c-3.29-10.93-2.95-21.73-1.62-27.99l-5.89-2.67c-6.07,8.76-9.96,19.18-11.25,30.2l-0.07,0.56l-0.54,0.15
				c-5.23,1.44-9.16,4.45-11.66,8.94c-3.13,5.61-4.4,12.67-3.79,20.98c1.22,16.56,7.38,31.02,18.84,44.21
				c11,12.66,24.94,21.94,38.23,25.47l0.57,0.15l0.05,0.59c0.25,2.83,0.6,5.62,1.03,8.3c0.87,5.42,2.4,10.34,4.53,14.61l1.07,2.14
				l-2.17-1c-16.07-7.42-39.26-22.12-58.49-49.99c-21.76-31.53-33.92-72.93-36.16-123.06l-6.31,0.27
				c0.34,7.55,1.19,19.08,3.25,32.51l0.22,1.46l-1.37-0.55c-4.79-1.93-10.06-1.81-14.47,0.32c-15.95,7.74-10.03,32.41-7.84,39.79
				c3.31,11.15,14.74,37.38,49.26,40.01l0.45,0.03l0.22,0.4c19.28,34.71,47.01,58.27,82.4,70.04l0.12,0.04l0.11,0.08
				c4.13,3.01,8.93,4.9,14.27,5.63c0.55,0.08,1.1,0.11,1.65,0.11l0.1,0h0.03c0.57-0.01,1.14-0.04,1.7-0.11
				c5.35-0.73,10.15-2.62,14.29-5.63l0.1-0.08l0.12-0.04c35.39-11.77,63.11-35.33,82.4-70.04l0.22-0.4l0.45-0.03
				c34.51-2.63,45.94-28.86,49.26-40.01C1104.52,474.1,1110.43,449.42,1094.49,441.69 M849.75,514.56
				c-26.73-4.44-35.84-25.88-38.52-34.89c-4.89-16.47-3.2-28.55,4.54-32.31c4.73-2.29,11-0.69,14.58,3.73l0.13,0.16l0.04,0.21
				c3.45,18.01,8.4,34.84,14.72,50.01c1.68,4.04,3.5,8.04,5.39,11.89l0.72,1.47L849.75,514.56z M984.71,513.73
				c-0.64-6.71-1.06-13.14,0.74-18.08l0.66-1.81l0.88,1.71c1.33,2.6,3.38,4.84,6.08,6.66c2.43,1.63,5.25,2.79,8.16,3.35l1.81,0.35
				l-1.45,1.14c-4.74,3.72-10.05,6.35-15.78,7.82l-0.95,0.24L984.71,513.73z M1027.72,464.21l0.01-1.35l1.21,0.61
				c2.19,1.1,3.84,2.7,5.06,4.88c2.52,4.52,3.53,10.39,3.01,17.45c-1.11,15.15-6.78,28.41-17.31,40.53
				c-9.53,10.97-21.07,19.05-32.49,22.74l-1.13,0.37l0.03-1.19c0.25-8.57-0.22-17.22-0.77-26.06l-0.04-0.71l0.7-0.16
				c8.85-1.99,17.05-6.48,23.71-12.97c6.69-6.53,11.88-15.14,14.99-24.9C1026.65,477.34,1027.67,470.86,1027.72,464.21
				 M1017.03,445.44l0.42-4.12l1.22,3.96c3.68,11.91,3.68,24.78,0.02,36.25c-2.03,6.35-4.97,12.08-8.73,17l-0.13,0.17l-0.19,0.09
				c-1.29,0.59-2.81,0.87-4.4,0.87c-2.89,0-6.04-0.93-8.64-2.68c-1.76-1.19-4.76-3.82-4.98-8.07l-0.03-0.49l0.42-0.26
				c5.01-3.12,9.4-7.04,13.03-11.64C1013.43,465.87,1016.19,453.74,1017.03,445.44 M888.85,445.28l1.22-3.96l0.42,4.12
				c0.84,8.3,3.6,20.43,11.99,31.06c3.64,4.6,8.02,8.52,13.03,11.64l0.42,0.26l-0.03,0.49c-0.22,4.26-3.21,6.88-4.98,8.07
				c-2.6,1.75-5.75,2.68-8.64,2.68c-1.59,0-3.1-0.28-4.4-0.87l-0.19-0.09l-0.13-0.17c-3.76-4.93-6.7-10.65-8.73-17.01
				C885.16,470.06,885.17,457.18,888.85,445.28 M922.17,522.19c-0.54,8.84-1.01,17.49-0.77,26.06l0.03,1.19l-1.13-0.37
				c-11.41-3.69-22.95-11.77-32.49-22.74c-10.53-12.12-16.2-25.38-17.31-40.54c-0.52-7.06,0.49-12.93,3-17.45
				c1.22-2.19,2.88-3.78,5.06-4.89l1.21-0.61l0.01,1.35c0.06,6.65,1.08,13.12,3.03,19.24c3.12,9.76,8.3,18.37,14.99,24.9
				c6.66,6.5,14.85,10.98,23.71,12.97l0.7,0.16L922.17,522.19z M922.81,513.73L922.81,513.73l-0.13,1.39l-0.95-0.24
				c-5.73-1.47-11.04-4.1-15.79-7.82l-1.45-1.14l1.81-0.35c2.91-0.56,5.73-1.72,8.16-3.35c2.7-1.82,4.74-4.06,6.08-6.66l0.88-1.71
				l0.66,1.81C923.87,500.59,923.44,507.02,922.81,513.73 M920.77,483.9l-0.07-0.05c-0.83-0.59-1.75-1.14-2.72-1.65l-0.07-0.04
				c-4.02-2.64-7.54-5.86-10.48-9.57c-1.7-2.15-3.24-4.53-4.58-7.06l-0.95-1.8l1.94,0.6c3.37,1.05,7.16,2.45,11.26,4.17
				c12.22,5.13,25.22,7.73,38.64,7.73s26.42-2.6,38.65-7.73c4.1-1.72,7.89-3.12,11.26-4.17l1.94-0.6l-0.95,1.8
				c-1.34,2.54-2.88,4.91-4.58,7.06c-2.94,3.72-6.46,6.94-10.48,9.57l-0.07,0.04c-0.97,0.51-1.88,1.06-2.72,1.65l-0.07,0.05
				c-8.79,4.91-19.89,7.45-32.98,7.53C940.66,491.34,929.57,488.81,920.77,483.9 M972.3,580.4c-4.32,6.45-10.43,10.18-18.14,11.1
				l-0.05,0.01l-0.75-0.01c-7.71-0.92-13.82-4.66-18.14-11.1c-3.71-5.53-5.34-11.98-6.05-16.42c-2.35-14.59-1.47-28.72-0.54-43.67
				l0.08-1.25c0.09-1.46,0.23-2.98,0.39-4.59l0.01-0.14c0.54-5.64,1.2-12.65-0.44-18.85l-0.38-1.45l1.44,0.43
				c6.93,2.07,14.79,3.18,23.36,3.28l0.61,0.01l0.08,0l0.32,0c0.01,0,0.02,0,0.02,0l0.36-0.01c8.57-0.11,16.43-1.21,23.36-3.28
				l1.44-0.43l-0.39,1.45c-1.65,6.2-0.98,13.22-0.44,18.85l0.01,0.14c0.15,1.61,0.3,3.13,0.39,4.59l0.08,1.27
				c0.93,14.95,1.81,29.06-0.54,43.65C977.64,568.42,976.01,574.87,972.3,580.4 M1096.28,479.68c-2.68,9.01-11.79,30.45-38.52,34.89
				l-1.61,0.27l0.72-1.47c1.9-3.86,3.71-7.86,5.39-11.9c6.32-15.17,11.27-31.99,14.72-50l0.04-0.21l0.13-0.16
				c3.58-4.42,9.85-6.02,14.58-3.73C1099.47,451.12,1101.17,463.2,1096.28,479.68"/>
			
				<rect x="1083.69" y="279.81" transform="matrix(0.502 -0.8649 0.8649 0.502 298.2758 1083.9418)" style="clip-path:url(#SVGID_00000123402531231421266020000008092092114008601005_);fill:#FFE8DD;" width="13.34" height="6.32"/>
			
				<rect x="798.66" y="322.89" transform="matrix(0.502 -0.8649 0.8649 0.502 119.0891 858.9066)" style="clip-path:url(#SVGID_00000123402531231421266020000008092092114008601005_);fill:#FFE8DD;" width="13.34" height="6.32"/>
			<path style="clip-path:url(#SVGID_00000123402531231421266020000008092092114008601005_);fill:#FFE8DD;" d="M1018.21,214.92
				c-16.16,13.19-31.66,17.52-45.03,17.52c-22.47,0-38.94-12.2-42.46-15.04l-4.14,4.76c1.7,1.34,6.64,5.02,13.95,8.55
				c0.27,0.14,0.55,0.27,0.84,0.4c0.18,0.09,0.37,0.18,0.56,0.26c0.15,0.07,0.29,0.13,0.42,0.2c0.26,0.11,0.52,0.23,0.78,0.35
				c0.18,0.08,0.35,0.15,0.52,0.23c0.3,0.13,0.57,0.25,0.85,0.36l0.03,0.01c0.15,0.06,0.29,0.12,0.44,0.18l0.03,0.01h0
				c0.47,0.19,0.94,0.38,1.42,0.57c0.26,0.1,0.53,0.21,0.79,0.3c0.01,0.01,0.01,0.01,0.02,0.01c0.21,0.08,0.43,0.16,0.64,0.24
				c8.5,3.15,17.14,4.74,25.66,4.74c4.16,0,8.35-0.39,12.46-1.15c0.66-0.12,1.26-0.25,1.86-0.38c0.02,0,0.04-0.01,0.06-0.01
				c0.4-0.09,0.8-0.18,1.2-0.27c0.6-0.14,1.09-0.26,1.56-0.39c0.6-0.16,1.1-0.29,1.58-0.43c0.96-0.27,1.93-0.57,2.87-0.88
				c0.32-0.1,0.64-0.21,0.96-0.33l0.96-0.34v0l0.27-0.1c8.54-3.12,16.92-8.02,24.92-14.56L1018.21,214.92z"/>
			
				<rect x="1044.27" y="293.73" transform="matrix(0.5019 -0.8649 0.8649 0.5019 266.7014 1056.8833)" style="clip-path:url(#SVGID_00000123402531231421266020000008092092114008601005_);fill:#FFE8DD;" width="13.34" height="6.32"/>
			
				<rect x="840.39" y="291.22" transform="matrix(0.5019 -0.8649 0.8649 0.5019 167.3113 879.2848)" style="clip-path:url(#SVGID_00000123402531231421266020000008092092114008601005_);fill:#FFE8DD;" width="13.34" height="6.32"/>
			
				<rect x="797.96" y="279.81" transform="matrix(0.5019 -0.8649 0.8649 0.5019 156.0462 836.8961)" style="clip-path:url(#SVGID_00000123402531231421266020000008092092114008601005_);fill:#FFE8DD;" width="13.34" height="6.32"/>
			<path style="clip-path:url(#SVGID_00000123402531231421266020000008092092114008601005_);fill:#16E35E;" d="M985.85,252.2
				l11.19-17.77l-0.96,0.34c-0.32,0.11-0.64,0.22-0.96,0.32c-0.94,0.31-1.91,0.61-2.87,0.88c-0.47,0.14-0.97,0.27-1.58,0.43
				c-0.47,0.12-0.97,0.25-1.56,0.39c-0.4,0.09-0.8,0.18-1.2,0.27l-13.52,21.46h31.68l-59.77,53.37l16.27-41.03h-38.36l23.03-37.24
				c-0.01,0-0.01-0.01-0.02-0.01l-5.86-2.49l-12.3,19.9l-6.66,10.77l-9.51,15.39h40.39l-14,35.29l-2.38,6.01l-6.31,15.91
				l75.45-67.37l5.24-4.68l11.35-10.14H985.85z"/>
		</g>
	</g>
</g>
</svg>
